# xmcd
#
# Track frame offsets:
#	150
#	16202
#	31828
#	42625
#	58312
#	72537
#	90719
#	101012
#	117001
#	131379
#	146026
#	154763
#	167593
#	179846
#	193093
#	207847
#	219790
#	232594
#	246415
#	258956
#
# Disc length: 3607 seconds
#
# Revision: 1
# Processed by: cddbd v1.5.2PL0 Copyright (c) Steve Scherf et al.
# Submitted via: audiograbber 1.83.01
#
DISCID=1e0e1514
DTITLE=Various Artist - Melodien für Millionen - La Montanara - CD2
DYEAR=2011
DGENRE=Pop
TTITLE0=WILDECKER HERZBUBEN - Herzilein
TTITLE1=GESCHWISTER HOFMANN - Der Junge von San Angelo
TTITLE2=ORCHESTER ERICH BECHT - So schön ist Volksmusik
TTITLE3=HANSI HINTERSEER - Wo die weißen Birken stehn
TTITLE4=SCHÄFER - Jetzt kommen die lustigen Tage (Potpourri)
TTITLE5=NINA and MIKE - Fahrende Musikanten
TTITLE6=BILLY MO - Ich kauf mir lieber einen Tirolerhut
TTITLE7=ANGELA WIEDL - Santa Maria della Montagna
TTITLE8=HEIKE SCHÄFER - Die Glocken von Rom
TTITLE9=BIANCA - Hörst Du die Glocken von Stella Maria
TTITLE10=HEINTJE - Der Mond ist aufgegangen
TTITLE11=GESCHWISTER FAHRNBERGER - Das Echo vom Königssee
TTITLE12=RENE CAROL - Kein Land kann schöner sein
TTITLE13=HEINO - Treue Bergvagabunden
TTITLE14=STEFANIE HERTEL and STEFAN MROSS - Zillertaler Hochzeitsmarsch
TTITLE15=PETER ALEXANDER - Schneewalzer
TTITLE16=WILLY SCHNEIDER - Wenn das Wasser im Rhein gold'ner Wein wär'
TTITLE17=LJUPKA DIMITROVSKA UND IVICA SERFEZI - Wo die Alpenrosen blüh'n
TTITLE18=MARIANNE and MICHAEL - In München steht ein Hofbräuhaus
TTITLE19=SLAVKO AVSENIK and SEINE ORIGINAL OBERKRAINER - Trompeten-Echo (Na golic
TTITLE19=i)
EXTD=
EXTT0=
EXTT1=
EXTT2=
EXTT3=
EXTT4=
EXTT5=
EXTT6=
EXTT7=
EXTT8=
EXTT9=
EXTT10=
EXTT11=
EXTT12=
EXTT13=
EXTT14=
EXTT15=
EXTT16=
EXTT17=
EXTT18=
EXTT19=
PLAYORDER=
